<svg viewBox="0 0 197 91" fill="none" xmlns="http://www.w3.org/2000/svg">
<g clip-path="url(#clip0_113_666)">
<path d="M45.6885 19.9731C43.6823 19.3725 41.5522 19.053 39.3488 19.053C27.0833 19.053 17.1343 29.0024 17.1343 41.2741C17.1343 42.5388 17.1539 44.0891 17.2128 45.8499V81.8583C17.2128 86.6161 13.3619 90.469 8.60641 90.469C3.85094 90.469 0 86.617 0 81.8583V41.5446C0 26.1331 12.5314 13.5909 27.9396 13.5909C34.6772 13.5909 40.859 15.9873 45.6885 19.9731Z" fill="url(#paint0_linear_113_666)"/>
<path d="M55.8738 40.8556V41.5446C55.8738 41.8346 55.8596 42.1202 55.8346 42.4005C55.0282 57.098 42.826 68.8092 27.9396 68.8092C23.1841 68.8092 19.3332 64.9519 19.3332 60.1985C19.3332 55.4451 23.1841 51.5877 27.9396 51.5877C33.7379 51.5877 38.4737 46.9575 38.6557 41.2001C38.4737 35.4426 33.7379 30.8124 27.9396 30.8124C24.5409 30.8124 21.5071 32.4019 19.5392 34.8768C19.5348 34.8813 19.5348 34.8866 19.5348 34.8866C18.0843 36.7171 17.2137 39.0295 17.2137 41.5437V45.849C17.1548 44.0873 17.1352 42.5379 17.1352 41.2733C17.1352 29.0015 27.0841 19.0521 39.3497 19.0521C41.553 19.0521 43.6823 19.3716 45.6894 19.9722C51.5367 24.7943 55.393 31.9485 55.8355 39.9943C55.8605 40.2799 55.8747 40.5655 55.8747 40.8556H55.8738Z" fill="url(#paint1_linear_113_666)"/>
<path d="M45.6885 19.9731C25.3625 17.1734 19.6962 34.3752 19.5392 34.8777C19.5348 34.8821 19.5348 34.8875 19.5348 34.8875C18.0843 36.718 17.2137 39.0304 17.2137 41.5446V45.8499C17.1548 44.0882 17.1352 42.5388 17.1352 41.2741C17.1352 29.0024 27.0841 19.053 39.3497 19.053C41.553 19.053 43.6823 19.3725 45.6894 19.9731H45.6885Z" fill="url(#paint2_linear_113_666)"/>
</g>
<path d="M193.054 40H189.064V18.5185H193.054V40Z" fill="white"/>
<path d="M167.786 40V18.5185H172.39L181.811 33.6783V18.5185H185.8V40H181.197L171.776 24.7481V40H167.786Z" fill="white"/>
<path d="M146.977 29.1672C146.977 31.3358 147.663 33.1157 149.033 34.5069C150.404 35.8776 152.082 36.563 154.066 36.563C156.051 36.563 157.728 35.8776 159.099 34.5069C160.47 33.1157 161.155 31.3358 161.155 29.1672C161.155 27.0395 160.47 25.3005 159.099 23.9503C157.728 22.5795 156.051 21.8942 154.066 21.8942C152.082 21.8942 150.404 22.5795 149.033 23.9503C147.663 25.3005 146.977 27.0395 146.977 29.1672ZM142.988 29.1672C142.988 26.9986 143.489 25.055 144.492 23.3365C145.494 21.5975 146.834 20.2575 148.512 19.3164C150.189 18.3753 152.041 17.9047 154.066 17.9047C156.092 17.9047 157.943 18.3753 159.621 19.3164C161.298 20.2575 162.638 21.5975 163.641 23.3365C164.643 25.055 165.145 26.9986 165.145 29.1672C165.145 30.8039 164.848 32.3383 164.255 33.7704C163.682 35.182 162.894 36.3891 161.892 37.3915C160.889 38.3735 159.713 39.151 158.363 39.7238C157.012 40.2762 155.58 40.5524 154.066 40.5524C152.552 40.5524 151.12 40.2762 149.77 39.7238C148.42 39.151 147.243 38.3735 146.241 37.3915C145.238 36.3891 144.44 35.182 143.847 33.7704C143.274 32.3383 142.988 30.8039 142.988 29.1672Z" fill="white"/>
<path d="M132.679 31.2233C130.265 30.7936 128.414 30.006 127.125 28.8603C125.856 27.6942 125.222 26.2416 125.222 24.5026C125.222 22.6409 125.908 21.1167 127.278 19.9301C128.649 18.7231 130.388 18.1196 132.495 18.1196C134.357 18.1196 136.035 18.6003 137.528 19.5619C139.022 20.5234 140.096 21.8123 140.75 23.4286L136.914 24.8402C136.526 23.94 135.943 23.2342 135.165 22.7227C134.408 22.1908 133.559 21.9248 132.618 21.9248C131.656 21.9248 130.869 22.1601 130.255 22.6307C129.662 23.1012 129.365 23.7047 129.365 24.4413C129.365 25.1368 129.682 25.6995 130.316 26.1291C130.951 26.5587 131.984 26.9065 133.416 27.1725C135.81 27.6226 137.661 28.4511 138.97 29.6582C140.3 30.8448 140.965 32.2973 140.965 34.0159C140.965 35.8571 140.249 37.3711 138.817 38.5577C137.405 39.7443 135.595 40.3376 133.385 40.3376C131.523 40.3376 129.825 39.8772 128.291 38.9566C126.757 38.0155 125.652 36.7573 124.977 35.182L128.843 33.3407C129.232 34.3432 129.825 35.1309 130.623 35.7037C131.421 36.2561 132.311 36.5323 133.293 36.5323C134.316 36.5323 135.155 36.2868 135.81 35.7958C136.464 35.3048 136.792 34.691 136.792 33.9545C136.792 33.2589 136.454 32.6963 135.779 32.2667C135.124 31.8166 134.091 31.4688 132.679 31.2233Z" fill="white"/>
<path d="M115.107 22.4465H109.921V28.5534H115.107C116.15 28.5534 117.02 28.2568 117.715 27.6635C118.431 27.0702 118.789 26.3337 118.789 25.454C118.789 24.5947 118.442 23.8786 117.746 23.3058C117.05 22.733 116.171 22.4465 115.107 22.4465ZM117.378 32.0212L122.963 40H118.36L113.02 32.4201H109.921V40H105.931V18.5185H115.414C117.623 18.5185 119.434 19.1629 120.845 20.4518C122.257 21.7407 122.963 23.4388 122.963 25.546C122.963 27.2236 122.441 28.6659 121.398 29.873C120.354 31.0596 119.014 31.7757 117.378 32.0212Z" fill="white"/>
<path d="M92.1492 27.2645H102.46V31.1926H92.1492V36.072H103.197V40H88.1597V18.5185H103.197V22.4465H92.1492V27.2645Z" fill="white"/>
<path d="M77.6117 22.4465H72.6096V29.5661H77.6117C78.7574 29.5661 79.719 29.2183 80.4964 28.5227C81.2738 27.8271 81.6625 26.9679 81.6625 25.945C81.6625 24.9425 81.2738 24.1139 80.4964 23.4592C79.7394 22.7841 78.7779 22.4465 77.6117 22.4465ZM77.6117 33.4942H72.6096V40H68.6202V18.5185H77.9186C80.1281 18.5185 81.9694 19.2243 83.4424 20.636C84.9154 22.0476 85.6519 23.8173 85.6519 25.945C85.6519 28.0522 84.8643 29.8423 83.289 31.3153C81.7341 32.7679 79.8417 33.4942 77.6117 33.4942Z" fill="white"/>
<path d="M173.005 90.6355V76.9075L157.221 48.3024H166.474L176.936 67.4128L186.249 48.3024H195.441L180.867 76.9075V90.6355H173.005Z" fill="url(#paint3_linear_113_666)"/>
<path d="M130.239 73.5209H153.945V80.8989H130.239V73.5209ZM129.029 90.6355H120.018L136.83 48.3024H147.111L164.045 90.6355H155.034L142.092 56.4062L129.029 90.6355Z" fill="url(#paint4_linear_113_666)"/>
<path d="M117.609 48.3024H126.257L115.916 90.6355H104.546L96.4425 59.7323L89.1249 90.6355H77.7554L66.6883 48.3024H75.2759L83.7425 81.2013L92.0882 48.3024H100.857L109.747 81.2013L117.609 48.3024Z" fill="url(#paint5_linear_113_666)"/>
<defs>
<linearGradient id="paint0_linear_113_666" x1="22.8443" y1="90.7394" x2="22.8443" y2="15.4205" gradientUnits="userSpaceOnUse">
<stop stop-color="#001E73"/>
<stop offset="1" stop-color="#0077E9"/>
</linearGradient>
<linearGradient id="paint1_linear_113_666" x1="20.0968" y1="29.3567" x2="49.1696" y2="58.415" gradientUnits="userSpaceOnUse">
<stop stop-color="#001458"/>
<stop offset="1" stop-color="#007BFF"/>
</linearGradient>
<linearGradient id="paint2_linear_113_666" x1="17.4019" y1="32.451" x2="46.3486" y2="32.451" gradientUnits="userSpaceOnUse">
<stop stop-color="#0F0094"/>
<stop offset="1" stop-color="#0064E9"/>
</linearGradient>
<linearGradient id="paint3_linear_113_666" x1="64.9344" y1="62.1202" x2="197" y2="62.1202" gradientUnits="userSpaceOnUse">
<stop offset="0.25" stop-color="#0138C3"/>
<stop offset="1" stop-color="#0178FB"/>
</linearGradient>
<linearGradient id="paint4_linear_113_666" x1="64.9345" y1="62.1202" x2="197" y2="62.1202" gradientUnits="userSpaceOnUse">
<stop offset="0.25" stop-color="#0138C3"/>
<stop offset="1" stop-color="#0178FB"/>
</linearGradient>
<linearGradient id="paint5_linear_113_666" x1="64.9345" y1="62.1202" x2="197" y2="62.1202" gradientUnits="userSpaceOnUse">
<stop offset="0.25" stop-color="#0138C3"/>
<stop offset="1" stop-color="#0178FB"/>
</linearGradient>
<clipPath id="clip0_113_666">
<rect width="55.8739" height="76.8781" fill="white" transform="translate(0 13.5909)"/>
</clipPath>
</defs>
</svg>
