<svg width="1435" height="659" viewBox="0 0 1435 659" fill="none" xmlns="http://www.w3.org/2000/svg">
<g clip-path="url(#clip0_41_333)">
<path d="M332.807 145.49C318.194 141.114 302.677 138.787 286.627 138.787C197.282 138.787 124.811 211.261 124.811 300.652C124.811 309.864 124.954 321.156 125.383 333.983V596.277C125.383 630.935 97.3315 659 62.6914 659C28.0513 659 0 630.941 0 596.277V302.622C0 190.36 91.282 99 203.52 99C252.598 99 297.628 116.456 332.807 145.49Z" fill="url(#paint0_linear_41_333)"/>
<path d="M407 297.603V302.622C407 304.734 406.896 306.815 406.714 308.856C400.84 415.917 311.956 501.224 203.519 501.224C168.879 501.224 140.828 473.126 140.828 438.501C140.828 403.876 168.879 375.779 203.519 375.779C245.756 375.779 280.253 342.051 281.578 300.112C280.253 258.173 245.756 224.446 203.519 224.446C178.763 224.446 156.663 236.024 142.329 254.052C142.297 254.084 142.297 254.123 142.297 254.123C131.731 267.457 125.389 284.301 125.389 302.615V333.976C124.96 321.143 124.817 309.857 124.817 300.645C124.817 211.255 197.288 138.78 286.634 138.78C302.683 138.78 318.194 141.108 332.814 145.483C375.407 180.608 403.498 232.721 406.721 291.329C406.902 293.409 407.006 295.49 407.006 297.603H407Z" fill="url(#paint1_linear_41_333)"/>
<path d="M332.807 145.49C184.747 125.096 143.473 250.398 142.329 254.058C142.297 254.091 142.297 254.13 142.297 254.13C131.731 267.464 125.389 284.308 125.389 302.622V333.983C124.96 321.15 124.817 309.864 124.817 300.652C124.817 211.261 197.288 138.787 286.634 138.787C302.683 138.787 318.194 141.114 332.814 145.49H332.807Z" fill="url(#paint2_linear_41_333)"/>
</g>
<path d="M565.344 166.136H528.908V217.997H565.344C573.69 217.997 580.694 215.463 586.357 210.397C592.02 205.33 594.851 199.071 594.851 191.619C594.851 184.317 592.02 178.282 586.357 173.513C580.843 168.595 573.839 166.136 565.344 166.136ZM565.344 246.61H528.908V294H499.848V137.523H567.58C583.674 137.523 597.087 142.664 607.817 152.947C618.546 163.23 623.911 176.121 623.911 191.619C623.911 206.969 618.174 220.009 606.699 230.739C595.373 241.319 581.588 246.61 565.344 246.61ZM671.239 201.232H746.348V229.844H671.239V265.387H751.713V294H642.179V137.523H751.713V166.136H671.239V201.232ZM838.468 166.136H800.69V210.62H838.468C846.068 210.62 852.402 208.459 857.469 204.138C862.685 199.816 865.293 194.451 865.293 188.043C865.293 181.784 862.759 176.568 857.692 172.395C852.626 168.222 846.218 166.136 838.468 166.136ZM855.01 235.88L895.694 294H862.163L823.268 238.786H800.69V294H771.63V137.523H840.704C856.798 137.523 869.987 142.217 880.27 151.606C890.553 160.995 895.694 173.364 895.694 188.713C895.694 200.933 891.894 211.44 884.294 220.232C876.693 228.876 866.932 234.092 855.01 235.88ZM966.472 230.068C948.887 226.938 935.4 221.201 926.011 212.856C916.772 204.361 912.152 193.78 912.152 181.113C912.152 167.552 917.144 156.449 927.129 147.806C937.114 139.013 949.781 134.617 965.131 134.617C978.692 134.617 990.912 138.119 1001.79 145.123C1012.67 152.128 1020.49 161.516 1025.26 173.289L997.32 183.572C994.489 177.015 990.241 171.873 984.579 168.148C979.065 164.273 972.88 162.336 966.025 162.336C959.021 162.336 953.283 164.05 948.812 167.477C944.491 170.905 942.33 175.301 942.33 180.666C942.33 185.733 944.64 189.831 949.259 192.961C953.879 196.09 961.405 198.624 971.837 200.561C989.273 203.839 1002.76 209.875 1012.3 218.668C1021.98 227.311 1026.83 237.892 1026.83 250.41C1026.83 263.822 1021.61 274.85 1011.18 283.494C1000.9 292.137 987.708 296.459 971.613 296.459C958.052 296.459 945.683 293.106 934.506 286.4C923.329 279.545 915.282 270.379 910.364 258.904L938.53 245.492C941.361 252.794 945.683 258.532 951.495 262.705C957.307 266.728 963.789 268.74 970.943 268.74C978.394 268.74 984.504 266.952 989.273 263.375C994.042 259.799 996.426 255.328 996.426 249.963C996.426 244.896 993.967 240.798 989.049 237.668C984.28 234.39 976.755 231.856 966.472 230.068ZM1070.62 215.091C1070.62 230.888 1075.61 243.853 1085.6 253.987C1095.58 263.971 1107.8 268.964 1122.26 268.964C1136.71 268.964 1148.93 263.971 1158.92 253.987C1168.9 243.853 1173.9 230.888 1173.9 215.091C1173.9 199.592 1168.9 186.925 1158.92 177.089C1148.93 167.105 1136.71 162.112 1122.26 162.112C1107.8 162.112 1095.58 167.105 1085.6 177.089C1075.61 186.925 1070.62 199.592 1070.62 215.091ZM1041.56 215.091C1041.56 199.294 1045.21 185.137 1052.51 172.619C1059.82 159.951 1069.58 150.19 1081.8 143.335C1094.02 136.48 1107.51 133.052 1122.26 133.052C1137.01 133.052 1150.5 136.48 1162.72 143.335C1174.94 150.19 1184.7 159.951 1192 172.619C1199.31 185.137 1202.96 199.294 1202.96 215.091C1202.96 227.013 1200.8 238.19 1196.47 248.622C1192.3 258.904 1186.56 267.697 1179.26 274.999C1171.96 282.152 1163.39 287.815 1153.55 291.988C1143.72 296.012 1133.29 298.024 1122.26 298.024C1111.23 298.024 1100.8 296.012 1090.96 291.988C1081.13 287.815 1072.56 282.152 1065.26 274.999C1057.95 267.697 1052.14 258.904 1047.82 248.622C1043.65 238.19 1041.56 227.013 1041.56 215.091ZM1222.2 294V137.523H1255.73L1324.36 247.951V137.523H1353.42V294H1319.89L1251.26 182.901V294H1222.2ZM1406.25 294H1377.19V137.523H1406.25V294Z" fill="white"/>
<path d="M856.695 350.634H919.69L844.361 659H761.542L702.512 433.893L649.209 659H566.391L485.775 350.634H548.329L610.003 590.278L670.795 350.634H734.67L799.427 590.278L856.695 350.634ZM948.692 534.332H1121.38V588.076H948.692V534.332ZM939.882 659H874.244L996.709 350.634H1071.6L1194.94 659H1129.31L1035.03 409.664L939.882 659ZM1260.21 659V559.001L1145.24 350.634H1212.64L1288.85 489.839L1356.69 350.634H1423.65L1317.48 559.001V659H1260.21Z" fill="white"/>
<defs>
<linearGradient id="paint0_linear_41_333" x1="166.404" y1="660.97" x2="166.404" y2="112.327" gradientUnits="userSpaceOnUse">
<stop stop-color="#0031BF"/>
<stop offset="1" stop-color="#0077E9"/>
</linearGradient>
<linearGradient id="paint1_linear_41_333" x1="146.39" y1="213.842" x2="358.164" y2="425.51" gradientUnits="userSpaceOnUse">
<stop stop-color="#002294"/>
<stop offset="0.16" stop-color="#0039AF"/>
<stop offset="0.4" stop-color="#0055D2"/>
<stop offset="0.63" stop-color="#006AEA"/>
<stop offset="0.83" stop-color="#0076F9"/>
<stop offset="1" stop-color="#007BFF"/>
</linearGradient>
<linearGradient id="paint2_linear_41_333" x1="126.76" y1="236.382" x2="337.616" y2="236.382" gradientUnits="userSpaceOnUse">
<stop stop-color="#0F0094"/>
<stop offset="1" stop-color="#0064E9"/>
</linearGradient>
<clipPath id="clip0_41_333">
<rect width="407" height="560" fill="white" transform="translate(0 99)"/>
</clipPath>
</defs>
</svg>
