<svg viewBox="0 0 56 77" fill="none" xmlns="http://www.w3.org/2000/svg">
<g clip-path="url(#clip0_61_131)">
<path d="M45.6885 6.38218C43.6823 5.78154 41.5522 5.46203 39.3488 5.46203C27.0833 5.46203 17.1343 15.4115 17.1343 27.6832C17.1343 28.9479 17.1539 30.4981 17.2128 32.259V68.2673C17.2128 73.0252 13.3619 76.8781 8.60641 76.8781C3.85094 76.8781 0 73.0261 0 68.2673V27.9536C0 12.5421 12.5314 0 27.9396 0C34.6772 0 40.859 2.39633 45.6885 6.38218Z" fill="url(#paint0_linear_61_131)"/>
<path d="M55.8738 27.2646V27.9536C55.8738 28.2437 55.8596 28.5293 55.8346 28.8095C55.0282 43.507 42.826 55.2183 27.9396 55.2183C23.1841 55.2183 19.3332 51.3609 19.3332 46.6075C19.3332 41.8541 23.1841 37.9968 27.9396 37.9968C33.7379 37.9968 38.4737 33.3666 38.6557 27.6091C38.4737 21.8517 33.7379 17.2215 27.9396 17.2215C24.5409 17.2215 21.5071 18.811 19.5392 21.2858C19.5348 21.2903 19.5348 21.2957 19.5348 21.2957C18.0843 23.1262 17.2137 25.4386 17.2137 27.9527V32.2581C17.1548 30.4963 17.1352 28.947 17.1352 27.6823C17.1352 15.4106 27.0841 5.46114 39.3497 5.46114C41.553 5.46114 43.6823 5.78065 45.6894 6.38129C51.5367 11.2034 55.393 18.3576 55.8355 26.4034C55.8605 26.689 55.8747 26.9746 55.8747 27.2646H55.8738Z" fill="url(#paint1_linear_61_131)"/>
<path d="M45.6885 6.38218C25.3625 3.58245 19.6962 20.7843 19.5392 21.2867C19.5348 21.2912 19.5348 21.2966 19.5348 21.2966C18.0843 23.127 17.2137 25.4395 17.2137 27.9536V32.259C17.1548 30.4972 17.1352 28.9479 17.1352 27.6832C17.1352 15.4115 27.0841 5.46203 39.3497 5.46203C41.553 5.46203 43.6823 5.78154 45.6894 6.38218H45.6885Z" fill="url(#paint2_linear_61_131)"/>
</g>
<defs>
<linearGradient id="paint0_linear_61_131" x1="22.8443" y1="77.1485" x2="22.8443" y2="1.8296" gradientUnits="userSpaceOnUse">
<stop stop-color="#001E73"/>
<stop offset="1" stop-color="#0077E9"/>
</linearGradient>
<linearGradient id="paint1_linear_61_131" x1="20.0968" y1="15.7658" x2="49.1696" y2="44.824" gradientUnits="userSpaceOnUse">
<stop stop-color="#001458"/>
<stop offset="1" stop-color="#007BFF"/>
</linearGradient>
<linearGradient id="paint2_linear_61_131" x1="17.4019" y1="18.8601" x2="46.3486" y2="18.8601" gradientUnits="userSpaceOnUse">
<stop stop-color="#0F0094"/>
<stop offset="1" stop-color="#0064E9"/>
</linearGradient>
<clipPath id="clip0_61_131">
<rect width="55.8739" height="76.8781" fill="white"/>
</clipPath>
</defs>
</svg>
